<svg width="63" height="48" viewBox="0 0 63 48" fill="none" xmlns="http://www.w3.org/2000/svg">
<path d="M24.752 14.9062C24.752 24.724 21.5358 33.6107 15.1035 41.5664C10.11 47.4909 6.34375 49.1413 3.80469 46.5176C3.21224 45.8405 2.91602 45.0365 2.91602 44.1055C2.91602 42.4128 3.80469 40.4661 5.58203 38.2656C10.0677 32.6797 12.3952 26.8398 12.5645 20.7461C10.5332 21.5924 8.50195 21.3809 6.4707 20.1113C2.57747 17.8262 0.630859 15.0332 0.630859 11.7324C0.630859 8.34701 1.73112 5.63867 3.93164 3.60742C6.13216 1.57617 8.50195 0.560547 11.041 0.560547C13.6647 0.560547 15.696 0.941406 17.1348 1.70312C18.5736 2.38021 19.8854 3.39583 21.0703 4.75C23.5247 7.54297 24.752 10.9284 24.752 14.9062Z" fill="#8CAD78"/>
<path d="M62.6043 14.9062C62.6043 24.724 59.3882 33.6107 52.9559 41.5664C47.9624 47.4909 44.1961 49.1413 41.657 46.5176C41.0646 45.8405 40.7684 45.0365 40.7684 44.1055C40.7684 42.4128 41.657 40.4661 43.4344 38.2656C47.9201 32.6797 50.2475 26.8398 50.4168 20.7461C48.3855 21.5924 46.3543 21.3809 44.323 20.1113C40.4298 17.8262 38.4832 15.0332 38.4832 11.7324C38.4832 8.34701 39.5835 5.63867 41.784 3.60742C43.9845 1.57617 46.3543 0.560547 48.8934 0.560547C51.5171 0.560547 53.5483 0.941406 54.9871 1.70312C56.4259 2.38021 57.7378 3.39583 58.9227 4.75C61.3771 7.54297 62.6043 10.9284 62.6043 14.9062Z" fill="#8CAD78"/>
</svg>
